<?xml version="1.0" encoding="UTF-8" standalone="no"?>
<svg
   id="Layer_1"
   data-name="Layer 1"
   viewBox="0 0 2206.6595 229.89553"
   version="1.1"
   sodipodi:docname="light.svg"
   width="2013.1"
   height="209.73"
   inkscape:version="1.1.1 (c3084ef, 2021-09-22)"
   xmlns:inkscape="http://www.inkscape.org/namespaces/inkscape"
   xmlns:sodipodi="http://sodipodi.sourceforge.net/DTD/sodipodi-0.dtd"
   xmlns="http://www.w3.org/2000/svg"
   xmlns:svg="http://www.w3.org/2000/svg"
   xmlns:rdf="http://www.w3.org/1999/02/22-rdf-syntax-ns#"
   xmlns:cc="http://creativecommons.org/ns#"
   xmlns:dc="http://purl.org/dc/elements/1.1/">
  <sodipodi:namedview
     id="namedview855"
     pagecolor="#ffffff"
     bordercolor="#666666"
     borderopacity="1.0"
     inkscape:pageshadow="2"
     inkscape:pageopacity="0.0"
     inkscape:pagecheckerboard="0"
     showgrid="false"
     viewbox-height="189.23"
     scale-x="1.09615"
     inkscape:zoom="0.28167842"
     inkscape:cx="899.96244"
     inkscape:cy="995.81643"
     inkscape:window-width="1534"
     inkscape:window-height="1165"
     inkscape:window-x="47"
     inkscape:window-y="25"
     inkscape:window-maximized="0"
     inkscape:current-layer="Layer_1" />
  <defs
     id="defs826">
    <style
       id="style824">.cls-1{fill:#0c213f;}.cls-2{fill:#ef3755;}</style>
  </defs>
  <title
     id="title828">Benzinga Logo January 2020</title>
  <polygon
     class="cls-1"
     points="257.04,39.4 360.24,39.4 360.24,0.63 212.62,0.63 212.62,208.29 359.62,208.29 359.62,169.52 257.04,169.52 257.04,121.97 342.1,121.97 342.1,83.19 257.04,83.19 "
     id="polygon830"
     transform="matrix(0.62576424,0,0,0.62576424,30.520987,66.804708)" />
  <polygon
     class="cls-1"
     points="537.41,207.66 579.94,207.66 579.94,0 535.52,0 535.52,130.72 439.19,0 372.9,0 393.54,26.27 393.54,208.29 437.94,208.29 437.94,71.93 "
     id="polygon832"
     transform="matrix(0.62576424,0,0,0.62576424,30.520987,66.804708)" />
  <path
     class="cls-1"
     d="m 126.42562,130.21339 c 12.12731,-2.34661 22.30224,-13.70423 22.30224,-29.74883 0,-17.221026 -12.51529,-33.265621 -37.54586,-33.265621 H 30.520987 l 12.51529,16.044595 V 197.13263 h 70.855283 c 25.03057,0 37.96512,-15.64411 37.96512,-35.22427 -0.39423,-16.03834 -11.35137,-29.73632 -25.43106,-31.69497 z M 70.832717,91.459819 h 34.842563 c 9.38646,0 15.26239,5.481692 15.26239,13.697981 0,8.21628 -5.86341,13.70423 -15.26239,13.70423 H 70.832717 Z M 106.86423,172.88427 H 70.832717 v -29.73632 h 36.031513 c 10.57541,0 16.44508,6.65813 16.44508,14.87441 -0.0188,9.37395 -6.28267,14.86191 -16.44508,14.86191 z"
     id="path834"
     style="stroke-width:0.625764" />
  <path
     class="cls-1"
     d="m 773.30319,148.99884 h 14.4802 v 15.26865 c -5.0875,4.69323 -15.6441,9.7807 -26.6138,9.7807 -23.0969,0 -39.5358,-17.60275 -39.5358,-41.48191 0,-23.87917 16.4389,-41.500693 39.5358,-41.500693 13.31,0 23.8792,7.446594 29.7489,16.445083 l 21.9017,-12.133569 c -9.3865,-14.874414 -25.8315,-28.159389 -52.0573,-28.159389 -36.795,0 -67.3197,25.443574 -67.3197,64.973108 0,39.52952 30.1368,64.9731 67.3197,64.9731 22.709,0 40.7122,-9.38647 53.2337,-23.49119 v -48.15882 h -59.4914 z"
     id="path836"
     style="stroke-width:0.625764" />
  <polygon
     class="cls-1"
     points="998.1,207.66 1040.63,207.66 1040.63,0 996.22,0 996.22,130.72 899.89,0 833.59,0 854.23,26.27 854.23,208.29 898.64,208.29 898.64,71.93 "
     id="polygon838"
     transform="matrix(0.62576424,0,0,0.62576424,30.520987,66.804708)" />
  <path
     class="cls-1"
     d="m 904.28189,66.804708 h -53.628 l 12.922,16.438826 -2.3466,6.257643 -41.5007,107.631453 h 31.2883 l 8.2225,-21.90175 h 55.9746 l 8.2226,21.90175 h 31.2882 z m -37.9651,83.764802 20.3436,-55.980869 20.3561,55.980869 h -40.6747 z"
     id="path840"
     style="stroke-width:0.625764" />
  <rect
     class="cls-1"
     x="515.95764"
     width="27.79019"
     height="130.34042"
     id="rect842"
     y="66.80471"
     style="stroke-width:0.625764" />
  <polygon
     class="cls-1"
     points="756.76,36.28 756.76,0.63 598.78,0.63 598.78,39.4 696.98,39.4 598.78,172.64 598.78,208.29 757.04,208.29 757.04,169.52 656.33,169.52 "
     id="polygon844"
     transform="matrix(0.62576424,0,0,0.62576424,30.520987,66.804708)" />
  <path
     class="cls-2"
     d="m 1075.4033,196.19398 -7.5717,-19.78666 h -47.3015 l -7.5592,19.78666 H 992.41449 L 1032.8951,93.086801 h 22.5651 l 40.4995,103.107179 z m -31.2256,-84.86615 -18.5476,49.16005 h 37.0952 z"
     id="path846"
     style="stroke-width:0.625764" />
  <path
     class="cls-2"
     d="M 1105.3273,196.19398 V 93.086801 h 45.3116 c 21.639,0 33.6974,14.843129 33.6974,32.308209 0,17.46509 -12.2149,32.30821 -33.6974,32.30821 h -27.2082 v 38.49076 z m 60.4426,-70.79897 c 0,-9.89333 -7.4215,-16.38251 -17.6215,-16.38251 h -24.7365 v 32.77128 h 24.724 c 10.2125,0 17.634,-6.49543 17.634,-16.38877 z"
     id="path848"
     style="stroke-width:0.625764" />
  <path
     class="cls-2"
     d="M 1195.7378,196.19398 V 93.086801 h 18.1033 V 196.19398 Z"
     id="path850"
     style="stroke-width:0.625764" />
  <path
     class="cls-2"
     d="m 1227.1762,186.45709 7.4215,-11.75185 c 5.2564,5.41286 15.6128,10.51284 25.3497,10.51284 9.7369,0 14.6867,-4.17385 14.6867,-10.04978 0,-6.18255 -7.8846,-7.88462 -17.0083,-9.89333 -12.8281,-2.77839 -28.1593,-6.18255 -28.1593,-22.87794 0,-12.20867 10.5065,-22.7215 29.3671,-22.7215 12.678,0 22.2584,4.48047 29.0605,10.51283 l -6.8021,11.43898 c -4.4805,-5.09998 -12.8282,-8.9672 -22.102,-8.9672 -8.5041,0 -13.9107,3.86722 -13.9107,9.12364 0,5.40661 7.4153,6.95224 16.226,8.96095 12.9846,2.78465 28.9103,6.49543 28.9103,24.11695 0,13.14105 -10.9759,23.15328 -31.0754,23.15328 -12.6404,0.0313 -24.2359,-3.98612 -31.964,-11.55787 z"
     id="path852"
     style="stroke-width:0.625764" />
  <metadata
     id="metadata941">
    <rdf:RDF>
      <cc:Work
         rdf:about="">
        <dc:title>Benzinga Logo January 2020</dc:title>
      </cc:Work>
    </rdf:RDF>
  </metadata>
</svg>
