<svg id="Layer_1" data-name="Layer 1" xmlns="http://www.w3.org/2000/svg" viewBox="0 0 2013.1 209.73"><defs><style>.cls-1{fill:#0c213f;}.cls-2{fill:#ef3755;}</style></defs><title>Benzinga Logo January 2020</title><polygon class="cls-1" points="212.62 208.29 359.62 208.29 359.62 169.52 257.04 169.52 257.04 121.97 342.1 121.97 342.1 83.19 257.04 83.19 257.04 39.4 360.24 39.4 360.24 0.63 212.62 0.63 212.62 208.29"/><polygon class="cls-1" points="535.52 130.72 439.19 0 372.9 0 393.54 26.27 393.54 208.29 437.94 208.29 437.94 71.93 537.41 207.66 579.94 207.66 579.94 0 535.52 0 535.52 130.72"/><path class="cls-1" d="M153.26,101.33c19.38-3.75,35.64-21.9,35.64-47.54,0-27.52-20-53.16-60-53.16H0L20,26.27v182H133.23c40,0,60.67-25,60.67-56.29C193.27,126.35,175.76,104.46,153.26,101.33ZM64.42,39.4H120.1c15,0,24.39,8.76,24.39,21.89s-9.37,21.9-24.39,21.9H64.42ZM122,169.52H64.42V122H122c16.9,0,26.28,10.64,26.28,23.77C148.25,160.75,138.24,169.52,122,169.52Z"/><path class="cls-1" d="M1187,131.35h23.14v24.4c-8.13,7.5-25,15.63-42.53,15.63-36.91,0-63.18-28.13-63.18-66.29s26.27-66.32,63.18-66.32c21.27,0,38.16,11.9,47.54,26.28l35-19.39c-15-23.77-41.28-45-83.19-45-58.8,0-107.58,40.66-107.58,103.83s48.16,103.83,107.58,103.83c36.29,0,65.06-15,85.07-37.54V93.82h-95.07Z"/><polygon class="cls-1" points="996.22 130.72 899.89 0 833.59 0 854.23 26.27 854.23 208.29 898.64 208.29 898.64 71.93 998.1 207.66 1040.63 207.66 1040.63 0 996.22 0 996.22 130.72"/><path class="cls-1" d="M1396.31,0h-85.7l20.65,26.27-3.75,10-66.32,172h50l13.14-35h89.45l13.14,35h50Zm-60.67,133.86,32.51-89.46,32.53,89.46h-65Z"/><rect class="cls-1" x="775.75" width="44.41" height="208.29"/><polygon class="cls-1" points="756.76 36.28 756.76 0.63 598.78 0.63 598.78 39.4 696.98 39.4 598.78 172.64 598.78 208.29 757.04 208.29 757.04 169.52 656.33 169.52 756.76 36.28"/><path class="cls-2" d="M1669.77,206.77l-12.1-31.62h-75.59L1570,206.77h-32.85L1601.84,42h36.06l64.72,164.77Zm-49.9-135.62-29.64,78.56h59.28Z"/><path class="cls-2" d="M1717.59,206.77V42H1790c34.58,0,53.85,23.72,53.85,51.63s-19.52,51.63-53.85,51.63h-43.48v61.51Zm96.59-113.14c0-15.81-11.86-26.18-28.16-26.18h-39.53v52.37H1786C1802.32,119.82,1814.18,109.44,1814.18,93.63Z"/><path class="cls-2" d="M1862.07,206.77V42H1891V206.77Z"/><path class="cls-2" d="M1912.31,191.21l11.86-18.78c8.4,8.65,24.95,16.8,40.51,16.8s23.47-6.67,23.47-16.06c0-9.88-12.6-12.6-27.18-15.81-20.5-4.44-45-9.88-45-36.56,0-19.51,16.79-36.31,46.93-36.31,20.26,0,35.57,7.16,46.44,16.8l-10.87,18.28c-7.16-8.15-20.5-14.33-35.32-14.33-13.59,0-22.23,6.18-22.23,14.58,0,8.64,11.85,11.11,25.93,14.32,20.75,4.45,46.2,10.38,46.2,38.54,0,21-17.54,37-49.66,37C1943.19,209.73,1924.66,203.31,1912.31,191.21Z"/></svg>