<svg width="246" height="42" viewBox="0 0 246 42" fill="none" xmlns="http://www.w3.org/2000/svg">
<g clip-path="url(#clip0_2312_40)">
<path d="M231.9 4H218.2L221.5 8.2L220.9 9.8L210.3 37.3H218.3L220.4 31.7H234.7L236.8 37.3H244.8L231.9 4ZM222.2 25.4L227.4 11.1L232.6 25.4H222.2ZM24.5 20.1C27.6 19.5 30.2 16.6 30.2 12.5C30.2 8.1 27 4 20.6 4H0L3.2 8.1V37.2H21.3C27.7 37.2 31 33.2 31 28.2C30.9 24.1 28.1 20.6 24.5 20.1ZM19 10.2H19.2C21.6 10.2 23.1 11.6 23.1 13.7C23.1 15.8 21.6 17.2 19.2 17.2H10.3V10.2H19ZM19.5 31H10.3V23.4H19.5C22.2 23.4 23.7 25.1 23.7 27.2C23.7 29.6 22.1 31 19.5 31ZM35.2 37.2H58.7V31H42.3V23.4H55.9V17.2H42.3V10.2H58.8V4H35.2M87 24.9L71.6 4H61L64.3 8.2V37.3H71.4V15.5L87.3 37.2H94.1V4H87M166 24.9L150.6 4H140L143.3 8.2V37.3H150.4V15.5L166.3 37.2H173.1V4H166M123.1 9.7V4H98.1V10.2H113.8L98.1 31.5V37.2H123.4V31H107.3M128.8 4H135.9V37.3H128.8V4ZM193.2 18.9L198 24.9H201.7V28.8C200.4 30 197.7 31.3 194.9 31.3C189 31.3 184.8 26.8 184.8 20.7C184.8 14.6 189 10.1 194.9 10.1C198.3 10.1 201 12 202.5 14.3L208.1 11.2C205.7 7.4 201.5 4 194.8 4C185.4 4 177.6 10.5 177.6 20.6C177.6 30.7 185.3 37.2 194.8 37.2C200.6 37.2 205.2 34.8 208.4 31.2V18.9H193.2Z" fill="#093451"/>
</g>
<defs>
<clipPath id="clip0_2312_40">
<rect width="246" height="33.4" fill="white" transform="translate(0 4)"/>
</clipPath>
</defs>
</svg>
