<?xml version="1.0" encoding="utf-8"?>
<!-- Generator: Adobe Illustrator 24.0.1, SVG Export Plug-In . SVG Version: 6.00 Build 0)  -->
<svg version="1.1" id="Layer_1" xmlns="http://www.w3.org/2000/svg" xmlns:xlink="http://www.w3.org/1999/xlink" x="0px" y="0px"
	 viewBox="0 0 403.2 42" style="enable-background:new 0 0 403.2 42;" xml:space="preserve">
<style type="text/css">
	.st0{fill:#0C213F;}
	.st1{fill:#EF3755;}
</style>
<title>Benzinga Logo January 2020</title>
<g>
	<polygon class="st0" points="42.6,41.7 72,41.7 72,34 51.5,34 51.5,24.4 68.5,24.4 68.5,16.7 51.5,16.7 51.5,7.9 72.2,7.9 
		72.2,0.1 42.6,0.1 	"/>
	<polygon class="st0" points="107.3,26.2 88,0 74.7,0 78.8,5.3 78.8,41.7 87.7,41.7 87.7,14.4 107.6,41.6 116.2,41.6 116.2,0 
		107.3,0 	"/>
	<path class="st0" d="M30.7,20.3c3.9-0.8,7.1-4.4,7.1-9.5c0-5.5-4-10.6-12-10.6H0l4,5.1v36.5h22.7c8,0,12.2-5,12.2-11.3
		C38.7,25.3,35.2,20.9,30.7,20.3z M12.9,7.9h11.2c3,0,4.9,1.8,4.9,4.4s-1.9,4.4-4.9,4.4H12.9V7.9z M24.4,34H12.9v-9.5h11.5
		c3.4,0,5.3,2.1,5.3,4.8C29.7,32.2,27.7,34,24.4,34z"/>
	<path class="st0" d="M237.8,26.3h4.6v4.9c-1.6,1.5-5,3.1-8.5,3.1c-7.4,0-12.7-5.6-12.7-13.3s5.3-13.3,12.7-13.3
		c4.3,0,7.6,2.4,9.5,5.3l7-3.9c-3-4.8-8.3-9-16.7-9c-11.8,0-21.5,8.1-21.5,20.8s9.6,20.8,21.5,20.8c7.3,0,13-3,17-7.5V18.8h-19
		L237.8,26.3z"/>
	<polygon class="st0" points="199.5,26.2 180.3,0 167,0 171.1,5.3 171.1,41.7 180,41.7 180,14.4 199.9,41.6 208.4,41.6 208.4,0 
		199.5,0 	"/>
	<path class="st0" d="M279.7,0h-17.2l4.1,5.3l-0.8,2l-13.3,34.5h10l2.6-7h17.9l2.6,7h10L279.7,0z M267.5,26.8L274,8.9l6.5,17.9
		H267.5L267.5,26.8z"/>
	<rect x="155.4" class="st0" width="8.9" height="41.7"/>
	<polygon class="st0" points="151.6,7.3 151.6,0.1 119.9,0.1 119.9,7.9 139.6,7.9 119.9,34.6 119.9,41.7 151.6,41.7 151.6,34 
		131.5,34 	"/>
	<path class="st1" d="M334.5,41.4l-2.4-6.3h-15.1l-2.4,6.3h-6.6l13-33h7.2l13,33H334.5z M324.5,14.3L318.5,30h11.9L324.5,14.3z"/>
	<path class="st1" d="M344,41.4v-33h14.5c6.9,0,10.8,4.8,10.8,10.3s-3.9,10.3-10.8,10.3h-8.7v12.3H344z M363.4,18.8
		c0-3.2-2.4-5.2-5.6-5.2h-7.9V24h7.9C361,24,363.4,21.9,363.4,18.8L363.4,18.8z"/>
	<path class="st1" d="M373,41.4v-33h5.8v33H373z"/>
	<path class="st1" d="M383,38.3l2.4-3.8c1.7,1.7,5,3.4,8.1,3.4s4.7-1.3,4.7-3.2c0-2-2.5-2.5-5.4-3.2c-4.1-0.9-9-2-9-7.3
		c0-3.9,3.4-7.3,9.4-7.3c4.1,0,7.1,1.4,9.3,3.4l-2.2,3.7c-1.4-1.6-4.1-2.9-7.1-2.9c-2.7,0-4.5,1.2-4.5,2.9c0,1.7,2.4,2.2,5.2,2.9
		c4.2,0.9,9.3,2.1,9.3,7.7c0,4.2-3.5,7.4-9.9,7.4C389.2,42,385.5,40.7,383,38.3z"/>
</g>
</svg>
